# xmcd
#
# Track frame offsets: 
#        150
#        17147
#        32139
#        50514
#        67385
#        84014
#        95748
#        114448
#        126503
#        147091
#        165140
#        181988
#        198991
#        217169
#        230874
#        248330
#        264903
#        280625
#        298531
#        315357
#
# Disc length: 4490 seconds
#
# Revision: 1
# Processed by: cddbd v1.5.2PL0 Copyright (c) Steve Scherf et al.
# Submitted via: ExactAudioCopy v0.95b3
#
DISCID=1c118814
DTITLE=Vari - Festivalbar 2008 Rossa
DYEAR=2008
DGENRE=Pop
TTITLE0=Vasco Rossi - Gioca con me
TTITLE1=Coldplay - Violet hill
TTITLE2=Zucchero - Tutti i colori della mia vita
TTITLE3=Onerepublic - Stop and stare
TTITLE4=Duffy - Mercy
TTITLE5=Amy Winehouse - Love is a losing game
TTITLE6=Caparezza - Eroe
TTITLE7=The Kooks - Always where i need to be
TTITLE8=Subsonica - L'ultima risposta
TTITLE9=Finley with Belinda - Your hero
TTITLE10=Cinema Bizarre - Lovesongs
TTITLE11=Gianluca Grignani - Ciao e arrivederci
TTITLE12=Tom Baxter - Better
TTITLE13=Alphabeat - Fascination
TTITLE14=Maroon 5 - Won't go home without you
TTITLE15=Rihanna with Ne Yo - Hate that i love you
TTITLE16=Giuliano Palma -Testarda io
TTITLE17=Sergio Mendes with Will I Am and S.Garret - Funky bahia
TTITLE18=Hercules and Love Affair - Blind
TTITLE19=Moby - I love to move in here
EXTD=YEAR: 2008
EXTT0=
EXTT1=
EXTT2=
EXTT3=
EXTT4=
EXTT5=
EXTT6=
EXTT7=
EXTT8=
EXTT9=
EXTT10=
EXTT11=
EXTT12=
EXTT13=
EXTT14=
EXTT15=
EXTT16=
EXTT17=
EXTT18=
EXTT19=
PLAYORDER=
